Coordinates
version=1
nRows=8
nColumns=36
inDegrees=yes

Units are S.I. units (second, meters, Newtons, ...)
If the header above contains a line with 'inDegrees', this indicates whether rotational values are in degrees (yes) or radians (no).

endheader
time	pelvis_tilt	pelvis_list	pelvis_rotation	pelvis_tx	pelvis_ty	pelvis_tz	hip_flexion_r	hip_adduction_r	hip_rotation_r	knee_angle_r	knee_angle_r_beta	ankle_angle_r	subtalar_angle_r	mtp_angle_r	hip_flexion_l	hip_adduction_l	hip_rotation_l	knee_angle_l	knee_angle_l_beta	ankle_angle_l	subtalar_angle_l	mtp_angle_l	lumbar_extension	lumbar_bending	lumbar_rotation	arm_flex_r	arm_add_r	arm_rot_r	elbow_flex_r	pro_sup_r	arm_flex_l	arm_add_l	arm_rot_l	elbow_flex_l	pro_sup_l
      6.33333330	     -7.05748256	     -1.19108674	     -0.60194598	      0.37550596	      0.89427585	     -0.10853549	     11.74552425	     -1.55360380	      0.31908856	      9.35140924	      0.16321288	      5.14956645	    -18.24309145	     -7.49999987	     13.94266364	     -3.01045444	      6.43244006	     11.31729803	      0.19752411	      5.27919870	    -11.96369795	     -7.49999987	     -9.81526396	      0.18473067	     -2.07149974	     10.45102011	    -11.09250356	     20.75465790	     28.75991809	     88.84692558	      6.94994033	     -8.36317943	      6.61215231	     32.31542838	     85.29551504
      6.35000000	     -6.36989851	     -1.14937199	     -0.69432363	      0.37919537	      0.89671903	     -0.10396914	      9.95649913	     -1.46224584	      0.32658110	      7.76248134	      0.13548086	      4.83141824	    -17.69412171	     -7.49999987	     12.09577470	     -3.05910324	      6.56472543	      9.51776154	      0.16611628	      4.75354569	    -11.72658465	     -7.49999987	     -9.69548355	     -0.00720168	     -2.01506182	     10.19633491	    -11.00668885	     20.94627009	     28.56053080	     88.75995615	      6.76864115	     -8.55819313	      7.36264313	     31.90002696	     85.14221440
      6.36666670	     -5.92717910	     -1.14434128	     -0.75860731	      0.38241402	      0.89394943	     -0.10473845	      8.68826595	     -1.37609988	      0.38436849	      6.64675218	      0.11600771	      4.68711428	    -17.43770485	     -7.49999987	     10.77268268	     -3.12826604	      6.48399277	      8.34913814	      0.14571995	      4.51030742	    -11.51868907	     -7.49999987	     -9.44113305	     -0.04485643	     -1.98778626	      9.87490005	    -10.99037776	     21.06111085	     28.53080717	     87.34018746	      6.53961297	     -8.71236283	      8.01271523	     31.61583752	     83.75440500
      6.38333330	     -5.23295091	     -1.11269329	     -0.87589299	      0.38471570	      0.89909205	     -0.10537997	      7.14036518	     -1.35709243	      0.46054404	      5.47710081	      0.09559344	      4.41869378	    -17.06297225	     -7.49999987	      9.13180138	     -3.18287112	      6.49226601	      7.02880633	      0.12267581	      4.18670899	    -11.07809608	     -7.49999987	     -9.47939528	     -0.10492822	     -1.83255579	      9.67052263	    -11.04617633	     21.48494381	     28.45138074	     87.37701556	      6.48627335	     -8.89228532	      9.13725233	     31.25117706	     83.65667150
      6.40000000	     -4.76523939	     -1.06910993	     -0.98453072	      0.38767501	      0.90186340	     -0.10568918	      5.85192879	     -1.36461330	      0.59943121	      4.26974464	      0.07452110	      4.10618428	    -16.66689109	     -7.49999987	      7.82431665	     -3.14273433	      6.42296643	      5.77599313	      0.10081010	      3.82183073	    -10.63905923	     -7.49999987	     -9.34512371	     -0.15146292	     -1.71598609	      9.39222354	    -11.04313834	     21.55007014	     28.45496706	     85.58720287	      6.36053799	     -8.92971992	      9.82099402	     30.99275996	     81.77982999
      6.41666670	     -4.24671309	     -1.02410233	     -1.12891539	      0.38851001	      0.90087592	     -0.10192864	      4.67645560	     -1.29905901	      0.58725495	      3.35612398	      0.05857541	      4.14608104	    -16.23172338	     -7.49999987	      6.63673257	     -3.18321493	      6.34182287	      4.85024453	      0.08465274	      3.56297626	    -10.48336191	     -7.49999987	     -9.31822655	     -0.33629054	     -1.60120998	      9.18309062	    -10.95528637	     21.72235139	     28.46954432	     84.37711700	      6.29613656	     -9.09213904	     10.38200870	     30.82368221	     80.51882530
      6.43333330	     -4.17953150	     -0.95578757	     -1.25117014	      0.39349885	      0.90506022	     -0.10709245	      4.00569382	     -1.43603022	      0.63574564	      2.56532152	      0.04477331	      3.96351988	    -15.81842760	     -7.49999987	      5.89111061	     -3.08927698	      6.35346793	      3.94843147	      0.06891313	      3.30615605	    -10.25612736	     -7.49999987	     -8.63082820	     -0.36347094	     -1.57275118	      8.86606397	    -10.96515839	     21.89211670	     28.33581561	     84.46230192	      5.99365485	     -9.04036769	     10.66876659	     30.60584570	     80.54257006
      6.45000000	     -3.37538647	     -0.91162463	     -1.44063355	      0.39220798	      0.90194447	     -0.10166504	      2.67882645	     -1.42756484	      0.40382378	      1.89132937	      0.03300992	      4.44985513	    -14.80649390	     -7.49999987	      4.50599069	     -3.08243518	      6.14997639	      3.24263605	      0.05659468	      3.33585124	    -10.00348555	     -7.49999987	     -9.08796804	     -0.53564604	     -1.30514022	      8.99152935	    -11.01340007	     22.98935038	     27.97939976	     83.90206264	      6.46053499	     -9.25393477	     12.67491619	     29.84889078	     79.50021191
